<svg version="1.2" xmlns="http://www.w3.org/2000/svg" viewBox="0 0 32 32" width="500" height="500">
	<title>logo c1-svg</title>
	<defs>
		<clipPath clipPathUnits="userSpaceOnUse" id="cp1">
			<path d="m-79-79h188.98v188.98h-188.98z"/>
		</clipPath>
		<linearGradient id="g1" x2="1" gradientUnits="userSpaceOnUse" gradientTransform="matrix(14.316,-2.481,3.247,18.731,10.17,17.355)">
			<stop offset="0" stop-color="#ffffff"/>
			<stop offset="1" stop-color="#ffffff"/>
		</linearGradient>
		<clipPath clipPathUnits="userSpaceOnUse" id="cp2">
			<path d="m-79-79h188.98v188.98h-188.98z"/>
		</clipPath>
		<clipPath clipPathUnits="userSpaceOnUse" id="cp3">
			<path d="m-72.81 31.97h13.66v26.83h-13.66z"/>
		</clipPath>
		<clipPath clipPathUnits="userSpaceOnUse" id="cp4">
			<path d="m-58.02 27.98h27.19v33.21h-27.19z"/>
		</clipPath>
		<clipPath clipPathUnits="userSpaceOnUse" id="cp5">
			<path d="m-30.83 32.48h14.72v25.98h-14.72z"/>
		</clipPath>
		<clipPath clipPathUnits="userSpaceOnUse" id="cp6">
			<path d="m-15.18 18.26h4.93v41.22h-4.93z"/>
		</clipPath>
		<clipPath clipPathUnits="userSpaceOnUse" id="cp7">
			<path d="m-9.45 18.26h4.93v41.22h-4.93z"/>
		</clipPath>
		<clipPath clipPathUnits="userSpaceOnUse" id="cp8">
			<path d="m5.86 20.67h19.3v33.43h-19.3z"/>
		</clipPath>
		<clipPath clipPathUnits="userSpaceOnUse" id="cp9">
			<path d="m35.54 31.97h13.65v26.83h-13.65z"/>
		</clipPath>
		<clipPath clipPathUnits="userSpaceOnUse" id="cp10">
			<path d="m50.33 27.98h27.18v33.21h-27.18z"/>
		</clipPath>
		<clipPath clipPathUnits="userSpaceOnUse" id="cp11">
			<path d="m77.88 29.96h4.58v27.89h-4.58z"/>
		</clipPath>
		<clipPath clipPathUnits="userSpaceOnUse" id="cp12">
			<path d="m83.53 18.26h4.93v41.22h-4.93z"/>
		</clipPath>
		<clipPath clipPathUnits="userSpaceOnUse" id="cp13">
			<path d="m88.93 32.48h14.72v25.98h-14.72z"/>
		</clipPath>
	</defs>
	<style>
		.s0 { fill: #000000 } 
		.s1 { fill: url(#g1) } 
		.s2 { fill: #ffffff } 
		.s3 { fill: #ed1d24 } 
	</style>
	<g id="g8">
		<g id="g10">
			<g id="Clip-Path: g12" clip-path="url(#cp1)">
				<g id="g12">
					<g id="g18">
						<path id="path20" fill-rule="evenodd" class="s0" d="m16 32c-8.8 0-16-7.2-16-16 0-8.8 7.2-16 16-16 8.8 0 16 7.2 16 16 0 8.8-7.2 16-16 16z"/>
					</g>
				</g>
			</g>
		</g>
		<g id="g22">
			<g id="g24">
				<g id="g30">
					<g id="g32">
						<path id="path40" class="s1" d="m9.3 12.5c0.7 4.2 8.7 5.1 8.7 5.1 1.6 0.1 2.9 0.8 2.9 0.8 6.1 3.6-0.3 6.8-0.3 6.8 7.6-2.5 4-7 4-7-1.7-2.1-5.4-2.5-5.4-2.5-4.5-0.5-6.3-2.3-6.3-2.3-4.1-4.8 2.6-6.6 2.6-6.6-7.5 1.1-6.2 5.7-6.2 5.7z"/>
					</g>
				</g>
			</g>
		</g>
		<g id="g42">
			<g id="Clip-Path: g44" clip-path="url(#cp2)">
				<g id="g44">
					<g id="g50">
						<path id="path52" fill-rule="evenodd" class="s2" d="m9 13.9c0 0-2.9 3.2 0.9 4.8 0 0 2 1 5.5 0.3 0 0 2.6-0.3 4.7 0.6 0 0 4.1 2.3-0.7 5.6 0 0 3.3-3.2-1-4.7 0 0-1.5-0.5-4.1-0.1 0 0-4.9 1.2-7.4-1.7 0 0-1.6-2.8 2.1-4.8z"/>
					</g>
					<g id="g54">
						<g id="g56">
						</g>
						<g id="g68">
							<g id="Clip-Path: g66" clip-path="url(#cp3)">
								<g id="g66" style="opacity: .9">
									<g id="g64">
										<path id="path62" class="s3" d="m-72 35.5q1-1.9 2.9-2.8 1.8-0.9 3.8-0.7 2.5 0.3 4.1 2 1.7 1.7 2 4.5 0.1 0.8-0.8 0.8-0.4 0-0.7 0-0.4-0.1-0.4-0.5-0.5-2.9-1.8-3.8-1.3-1-2.3-0.9-1.2 0-2.2 0.7-1 0.6-1.4 1.9-0.6 2.1 0.6 3.9 1.1 1.9 2.9 3.8 1.4 1.6 2.8 3.5 1.3 1.9 1.8 3.9 0.4 2-0.4 3.6-0.8 1.6-2.2 2.5-1.4 0.9-3 0.9-2.2-0.1-3.6-1.9-0.3-0.7 0.4-1.1 0.7-0.6 1.3 0 0.7 1 1.9 1.1 1.3 0 2.2-1.1 0.8-1.1 0.1-3-0.7-1.6-2.1-3.1-1.4-1.5-2.3-2.6-1.4-1.7-2.6-3.5-1.3-1.8-1.7-3.8-0.4-2 0.7-4.3z"/>
									</g>
								</g>
							</g>
						</g>
					</g>
					<g id="g70">
						<g id="g72">
						</g>
						<g id="g84">
							<g id="Clip-Path: g82" clip-path="url(#cp4)">
								<g id="g82" style="opacity: .9">
									<g id="g80">
										<path id="path78" class="s3" d="m-31.3 56q0.8 0 1.4 0.4 0.5 0.3 0.5 1.1-0.2 2.2-0.4 13.6-0.1 3.8-0.1 7.8 0 3.9 0.9 7.6 0.5 1.5-0.9 2.2-0.7 0.5-1.5 0.5-0.7 0-1.1-0.7-1.1-2.7-1.3-7.5-0.3-4.8-0.1-9.9 0.1-4.2 0.2-7.6-0.8 2-1.7 4.5-3 7.6-3.6 8.8-0.4 1.3-0.9 1.9-0.5 0.6-1.8 0.7-1.2 0-1.6-0.4-0.5-0.4-0.7-0.9-1-2-1.6-8-0.3-3.3-0.7-6.5-1.5 2.6-2.4 6.2-0.9 3.7-1 5-0.2 1-0.6 3.4-0.4 2.5-0.3 4.8 0 0.6-0.4 0.9-0.4 0.3-1.1 0.6-0.8 0.3-1.4 0.3-0.6 0.1-1-0.7-0.9-2.6-1.2-8.1-0.4-8.7-0.3-12.4 0-0.8 0.6-1 0.6-0.2 1.5-0.2 0.9 0 1.4 0.2 0.6 0.3 0.6 1.1-0.1 6.5 0.2 11 1.7-7.5 3.4-11.3 1.3-3.5 3-3.4 0.7 0 1.2 0.5 0.5 0.5 0.8 1 0.3 0.6 0.4 1 1.2 3.6 2.4 12.2 2-3.4 5.3-12.8 0.9-2.6 1.8-5.1 0.3-0.7 0.9-0.8 0.5-0.1 1.2 0z"/>
									</g>
								</g>
							</g>
						</g>
					</g>
					<g id="g86">
						<g id="g88">
						</g>
						<g id="g100">
							<g id="Clip-Path: g98" clip-path="url(#cp5)">
								<g id="g98" style="opacity: .9">
									<g id="g96">
										<path id="path94" fill-rule="evenodd" class="s3" d="m-26 64.4q1.4-2.3 3.2-3.2 1.7-0.9 3.4-0.7 2.1 0.4 3.3 2.1 1.3 1.8 0.9 4.8-0.1 0.8-0.5 2-0.4 1.2-1.6 2.6-1.2 1.4-3.6 2.7-1.4 0.8-3.3 1.5 0 0.7 0.1 2.6 0.2 2 0.9 3.7 0.7 1.8 2.2 1.8 1.3-0.1 2.3-1.2 1-1.1 1.7-2.7 0.7-1.6 0.9-2.9 0.3-0.7 1.2-0.5 0.9 0.1 0.8 0.9-0.5 2.9-2.3 5.4-1.9 2.6-4.9 3.1-3 0.3-5.2-2.1-2.1-2.5-2.3-8 0-6.8 2.8-11.9zm9 2.8q0.2-1.6-0.3-2.8-0.5-1.2-1.5-1.4-0.5 0-1 0.3-0.5 0.3-1.1 1.1-0.6 0.8-1.3 2.1-0.9 2.2-1.4 4.3-0.4 2.1-0.5 3.4 1.3-0.5 2.5-1.2 1.8-1 3-2.4 1.3-1.4 1.6-3.4z"/>
									</g>
								</g>
							</g>
						</g>
					</g>
					<g id="g102">
						<g id="g104">
						</g>
						<g id="g116">
							<g id="Clip-Path: g114" clip-path="url(#cp6)">
								<g id="g114" style="opacity: .9">
									<g id="g112">
										<path id="path110" class="s3" d="m-10.6 46.3q0.9 0 1.5 0.3 0.6 0.3 0.6 1.2-0.5 8-0.6 16.5-0.1 4.7 0 11.7 0.1 6.9 0.8 9.9 0.2 0.7-0.2 0.9-0.4 0.3-1.1 0.4-0.4 0.2-0.8 0.2-0.3 0.1-0.6 0-0.3-0.1-0.4-0.5-1.1-4.1-1.4-10.8-0.3-6.7-0.3-11.8-0.2-8.4 0.2-16.7 0-0.9 0.7-1.1 0.6-0.3 1.6-0.2z"/>
									</g>
								</g>
							</g>
						</g>
					</g>
					<g id="g118">
						<g id="g120">
						</g>
						<g id="g132">
							<g id="Clip-Path: g130" clip-path="url(#cp7)">
								<g id="g130" style="opacity: .9">
									<g id="g128">
										<path id="path126" class="s3" d="m-4.9 46.3q1 0 1.5 0.3 0.6 0.3 0.6 1.2-0.4 8-0.6 16.5-0.1 4.7 0 11.7 0.1 6.9 0.8 9.9 0.2 0.7-0.2 0.9-0.4 0.3-1 0.4-0.5 0.2-0.8 0.2-0.4 0.1-0.6 0-0.3-0.1-0.4-0.5-1.1-4.1-1.5-10.8-0.3-6.7-0.3-11.8-0.1-8.4 0.2-16.7 0.1-0.9 0.7-1.1 0.7-0.3 1.6-0.2z"/>
									</g>
								</g>
							</g>
						</g>
					</g>
					<g id="g134">
						<g id="g136">
						</g>
						<g id="g148">
							<g id="Clip-Path: g146" clip-path="url(#cp8)">
								<g id="g146" style="opacity: .9">
									<g id="g144">
										<path id="path142" fill-rule="evenodd" class="s3" d="m12.2 53.8q0.9-2.4 2.4-3.7 1.5-1.3 3.4-1.4 2.5-0.2 4.2 1.2 1.7 1.4 2.4 3.7 0.9 2.5 0.4 5.5-0.5 2.9-2.4 5.7-2.7 3.5-5.6 5.9l0.6 0.9q1.8 2.7 3.1 4.3 2.9-2.8 4.9-6.4 0.4-0.6 1-0.2 0.7 0.3 0.5 0.9-0.1 0.2-0.7 1.3-0.7 1.1-1.8 2.6-1.2 1.5-2.8 3.1 1.3 1.6 1.4 1.9 0.3 0.6-0.4 1-0.7 0.5-1.1 0-0.6-0.9-1.2-1.6-0.7 0.5-2 1.4-1.3 0.9-3 1.6-1.8 0.7-3.7 0.6-1.9-0.1-3.1-1.9-1.1-1.9-0.7-3.8 0.3-1.9 1.4-3.6 1.9-2.5 4.2-4.6-1.3-2.6-2-6.4-0.8-3.8 0.6-8zm3.5 18.1q-0.7 0.6-1.7 1.5-1 1-1.8 2.1-0.6 0.9-0.8 1.9-0.2 0.9 0.3 1.8 0.5 0.8 1.4 0.8 0.8 0.1 1.8-0.3 1.6-0.5 2.8-1.4 1.3-0.8 1.7-1.2-1.4-1.6-3.3-4.5-0.2-0.4-0.4-0.7zm3.4-9.5q1.1-1.7 1.3-3.6 0.3-1.8 0-3.5-0.3-1.7-1.1-2.7-0.8-1.1-1.8-1.2-2.1 0-3.4 3-0.8 2.1-0.8 4.3 0 2.2 0.4 4 0.4 1.9 1.3 4.2 3.2-3.2 4.1-4.5z"/>
									</g>
								</g>
							</g>
						</g>
					</g>
					<g id="g150">
						<g id="g152">
						</g>
						<g id="g164">
							<g id="Clip-Path: g162" clip-path="url(#cp9)">
								<g id="g162" style="opacity: .9">
									<g id="g160">
										<path id="path158" class="s3" d="m38.3 63.5q1.1-1.9 2.9-2.8 1.8-0.9 3.8-0.7 2.5 0.3 4.2 2 1.6 1.7 2 4.5 0 0.8-0.8 0.8-0.4 0-0.8 0-0.3-0.1-0.4-0.5-0.4-2.9-1.7-3.8-1.4-1-2.4-0.9-1.2 0-2.1 0.7-1 0.6-1.4 1.9-0.6 2.1 0.5 3.9 1.2 1.9 2.9 3.8 1.5 1.6 2.8 3.5 1.3 1.9 1.8 3.9 0.4 2-0.3 3.6-0.8 1.6-2.3 2.5-1.4 0.9-3 0.9-2.2-0.1-3.5-1.9-0.4-0.7 0.4-1.1 0.7-0.6 1.2 0 0.8 1 2 1.1 1.3 0 2.1-1.1 0.8-1.1 0.2-3-0.8-1.6-2.2-3.1-1.4-1.5-2.3-2.6-1.3-1.7-2.6-3.5-1.2-1.8-1.6-3.8-0.5-2 0.6-4.3z"/>
									</g>
								</g>
							</g>
						</g>
					</g>
					<g id="g166">
						<g id="g168">
						</g>
						<g id="g180">
							<g id="Clip-Path: g178" clip-path="url(#cp10)">
								<g id="g178" style="opacity: .9">
									<g id="g176">
										<path id="path174" class="s3" d="m77 56q0.9 0 1.4 0.4 0.6 0.3 0.5 1.1-0.1 2.2-0.4 13.6-0.1 3.8-0.1 7.8 0 3.9 1 7.6 0.5 1.5-0.9 2.2-0.8 0.5-1.5 0.5-0.8 0-1.2-0.7-1.1-2.7-1.3-7.5-0.2-4.8 0-9.9 0.1-4.2 0.1-7.6-0.7 2-1.7 4.5-3 7.6-3.5 8.8-0.5 1.3-1 1.9-0.5 0.6-1.8 0.7-1.1 0-1.6-0.4-0.4-0.4-0.6-0.9-1-2-1.6-8-0.3-3.3-0.7-6.5-1.5 2.6-2.4 6.2-0.9 3.7-1.1 5-0.2 1-0.6 3.4-0.3 2.5-0.3 4.8 0.1 0.6-0.4 0.9-0.4 0.3-1.1 0.6-0.7 0.3-1.4 0.3-0.6 0.1-0.9-0.7-1-2.6-1.3-8.1-0.4-8.7-0.3-12.4 0.1-0.8 0.7-1 0.6-0.2 1.5-0.2 0.8 0 1.4 0.2 0.5 0.3 0.5 1.1 0 6.5 0.2 11 1.8-7.5 3.4-11.3 1.3-3.5 3-3.4 0.7 0 1.2 0.5 0.5 0.5 0.8 1 0.3 0.6 0.4 1 1.2 3.6 2.4 12.2 2.1-3.4 5.4-12.8 0.9-2.6 1.8-5.1 0.3-0.7 0.8-0.8 0.5-0.1 1.2 0z"/>
									</g>
								</g>
							</g>
						</g>
					</g>
					<g id="g182">
						<g id="g184">
						</g>
						<g id="g196">
							<g id="Clip-Path: g194" clip-path="url(#cp11)">
								<g id="g194" style="opacity: .9">
									<g id="g192">
										<path id="path190" class="s3" d="m82.3 58q0.9 0 1.5 0.5 0.7 0.5 0.7 1.2 0 0.8-0.7 1.3-0.6 0.5-1.5 0.5-0.9 0-1.5-0.5-0.6-0.5-0.6-1.3 0-0.7 0.6-1.2 0.6-0.5 1.5-0.5zm-0.2 5.6q0.9 0.1 1.5 0.4 0.5 0.4 0.5 1.2-0.5 6.3-0.5 12.6 0.1 3.2 0.3 4.9 0.1 1.7 0.2 1.8 0.1 1-1.4 1.2-0.7 0.2-1.2 0.1-0.5-0.1-0.6-0.8-0.7-4.2-0.8-7-0.4-8.3 0-13.1 0-0.8 0.6-1.1 0.6-0.3 1.4-0.2z"/>
									</g>
								</g>
							</g>
						</g>
					</g>
					<g id="g198">
						<g id="g200">
						</g>
						<g id="g212">
							<g id="Clip-Path: g210" clip-path="url(#cp12)">
								<g id="g210" style="opacity: .9">
									<g id="g208">
										<path id="path206" class="s3" d="m88.1 46.3q0.9 0 1.5 0.3 0.6 0.3 0.6 1.2-0.4 8-0.6 16.5-0.1 4.7 0 11.7 0.1 6.9 0.8 9.9 0.2 0.7-0.2 0.9-0.4 0.3-1.1 0.4-0.4 0.2-0.7 0.2-0.4 0.1-0.7 0-0.2-0.1-0.3-0.5-1.2-4.1-1.5-10.8-0.3-6.7-0.3-11.8-0.2-8.4 0.2-16.7 0-0.9 0.7-1.1 0.6-0.3 1.6-0.2z"/>
									</g>
								</g>
							</g>
						</g>
					</g>
					<g id="g214">
						<g id="g216">
						</g>
						<g id="g228">
							<g id="Clip-Path: g226" clip-path="url(#cp13)">
								<g id="g226" style="opacity: .9">
									<g id="g224">
										<path id="path222" fill-rule="evenodd" class="s3" d="m93.7 64.4q1.5-2.3 3.2-3.2 1.8-0.9 3.4-0.7 2.1 0.4 3.4 2.1 1.2 1.8 0.9 4.8-0.1 0.8-0.5 2-0.5 1.2-1.7 2.6-1.1 1.4-3.5 2.7-1.4 0.8-3.3 1.5-0.1 0.7 0.1 2.6 0.1 2 0.8 3.7 0.7 1.8 2.3 1.8 1.2-0.1 2.2-1.2 1-1.1 1.7-2.7 0.7-1.6 1-2.9 0.2-0.7 1.2-0.5 0.8 0.1 0.7 0.9-0.4 2.9-2.3 5.4-1.8 2.6-4.8 3.1-3.1 0.3-5.2-2.1-2.2-2.5-2.4-8 0-6.8 2.8-11.9zm9 2.8q0.2-1.6-0.3-2.8-0.4-1.2-1.4-1.4-0.5 0-1 0.3-0.6 0.3-1.2 1.1-0.5 0.8-1.2 2.1-1 2.2-1.4 4.3-0.4 2.1-0.5 3.4 1.3-0.5 2.5-1.2 1.8-1 3-2.4 1.3-1.4 1.5-3.4z"/>
									</g>
								</g>
							</g>
						</g>
					</g>
				</g>
			</g>
		</g>
	</g>
</svg>