<svg version="1.2" xmlns="http://www.w3.org/2000/svg" viewBox="0 0 189 189" width="189" height="189">
	<title>logo c1-svg</title>
	<defs>
		<clipPath clipPathUnits="userSpaceOnUse" id="cp1">
			<path d="m0 0h188.98v188.98h-188.98z"/>
		</clipPath>
		<linearGradient id="g1" x2="1" gradientUnits="userSpaceOnUse" gradientTransform="matrix(18.654,-3.233,4.23,24.406,86.088,71.744)">
			<stop offset="0" stop-color="#ffffff"/>
			<stop offset="1" stop-color="#ffffff"/>
		</linearGradient>
		<clipPath clipPathUnits="userSpaceOnUse" id="cp2">
			<path d="m0 0h188.98v188.98h-188.98z"/>
		</clipPath>
	</defs>
	<style>
		.s0 { fill: #000000 } 
		.s1 { fill: url(#g1) } 
		.s2 { fill: #ffffff } 
	</style>
	<g id="g8">
		<g id="g10">
			<g id="Clip-Path: g12" clip-path="url(#cp1)">
				<g id="g12">
					<g id="g18">
						<path id="path20" fill-rule="evenodd" class="s0" d="m93.7 49.1c-11.5 0-20.9 9.4-20.9 20.9 0 11.5 9.4 20.8 20.9 20.8 11.5 0 20.8-9.3 20.8-20.8 0-11.5-9.3-20.9-20.8-20.9z"/>
					</g>
				</g>
			</g>
		</g>
		<g id="g22">
			<g id="g24">
				<g id="g30">
					<g id="g32">
						<path id="path40" class="s1" d="m85 65.4c0.9 5.5 11.3 6.6 11.3 6.6 2 0.2 3.8 1.1 3.8 1.1 7.9 4.8-0.5 8.9-0.5 8.9 10-3.3 5.3-9.1 5.3-9.1-2.2-2.8-7.1-3.3-7.1-3.3-5.8-0.6-8.2-3-8.2-3-5.3-6.2 3.4-8.6 3.4-8.6-9.8 1.4-8 7.4-8 7.4z"/>
					</g>
				</g>
			</g>
		</g>
		<g id="g42">
			<g id="Clip-Path: g44" clip-path="url(#cp2)">
				<g id="g44">
					<g id="g50">
						<path id="path52" fill-rule="evenodd" class="s2" d="m84.6 67.3c0 0-3.8 4.1 1.1 6.2 0 0 2.6 1.3 7.3 0.4 0 0 3.3-0.4 6 0.8 0 0 5.4 3-0.9 7.3 0 0 4.3-4.1-1.3-6.2 0 0-2-0.6-5.3-0.1 0 0-6.5 1.6-9.7-2.2 0 0-2-3.7 2.8-6.2z"/>
					</g>
				</g>
			</g>
		</g>
	</g>
</svg>