<?xml version="1.0" encoding="UTF-8" standalone="no"?>
<!-- Created with Inkscape (http://www.inkscape.org/) -->

<svg
   version="1.1"
   id="svg2"
   width="188.976"
   height="188.976"
   viewBox="0 0 188.976 188.976"
   sodipodi:docname="logo c1.ai"
   xmlns:inkscape="http://www.inkscape.org/namespaces/inkscape"
   xmlns:sodipodi="http://sodipodi.sourceforge.net/DTD/sodipodi-0.dtd"
   xmlns="http://www.w3.org/2000/svg"
   xmlns:svg="http://www.w3.org/2000/svg">
  <defs
     id="defs6">
    <clipPath
       clipPathUnits="userSpaceOnUse"
       id="clipPath16">
      <path
         d="M 0,141.732 H 141.732 V 0 H 0 Z"
         id="path14" />
    </clipPath>
    <linearGradient
       x1="0"
       y1="0"
       x2="1"
       y2="0"
       gradientUnits="userSpaceOnUse"
       gradientTransform="matrix(13.990314,2.4250372,3.1729759,-18.305267,64.56626,87.923632)"
       spreadMethod="pad"
       id="linearGradient38">
      <stop
         style="stop-opacity:1;stop-color:#ffffff"
         offset="0"
         id="stop34" />
      <stop
         style="stop-opacity:1;stop-color:#ffffff"
         offset="1"
         id="stop36" />
    </linearGradient>
    <clipPath
       clipPathUnits="userSpaceOnUse"
       id="clipPath48">
      <path
         d="M 0,141.732 H 141.732 V 0 H 0 Z"
         id="path46" />
    </clipPath>
    <clipPath
       clipPathUnits="userSpaceOnUse"
       id="clipPath60">
      <path
         d="M 4.64594,58.5008 H 14.8839 V 38.3827 H 4.64594 Z"
         id="path58" />
    </clipPath>
    <clipPath
       clipPathUnits="userSpaceOnUse"
       id="clipPath76">
      <path
         d="M 15.7369,61.4998 H 36.1255 V 36.5874 H 15.7369 Z"
         id="path74" />
    </clipPath>
    <clipPath
       clipPathUnits="userSpaceOnUse"
       id="clipPath92">
      <path
         d="M 36.124,58.1222 H 47.167 V 38.6389 H 36.124 Z"
         id="path90" />
    </clipPath>
    <clipPath
       clipPathUnits="userSpaceOnUse"
       id="clipPath108">
      <path
         d="m 47.8638,68.7838 h 3.6957 v -30.912 h -3.6957 z"
         id="path106" />
    </clipPath>
    <clipPath
       clipPathUnits="userSpaceOnUse"
       id="clipPath124">
      <path
         d="m 52.1649,68.7838 h 3.6958 v -30.912 h -3.6958 z"
         id="path122" />
    </clipPath>
    <clipPath
       clipPathUnits="userSpaceOnUse"
       id="clipPath140">
      <path
         d="M 63.6437,66.9791 H 78.1205 V 41.9071 H 63.6437 Z"
         id="path138" />
    </clipPath>
    <clipPath
       clipPathUnits="userSpaceOnUse"
       id="clipPath156">
      <path
         d="M 85.9038,58.5008 H 96.1417 V 38.3827 H 85.9038 Z"
         id="path154" />
    </clipPath>
    <clipPath
       clipPathUnits="userSpaceOnUse"
       id="clipPath172">
      <path
         d="M 96.9953,61.4998 H 117.384 V 36.5874 H 96.9953 Z"
         id="path170" />
    </clipPath>
    <clipPath
       clipPathUnits="userSpaceOnUse"
       id="clipPath188">
      <path
         d="m 117.66,60.0113 h 3.436 V 39.0915 h -3.436 z"
         id="path186" />
    </clipPath>
    <clipPath
       clipPathUnits="userSpaceOnUse"
       id="clipPath204">
      <path
         d="m 121.899,68.7838 h 3.695 v -30.912 h -3.695 z"
         id="path202" />
    </clipPath>
    <clipPath
       clipPathUnits="userSpaceOnUse"
       id="clipPath220">
      <path
         d="m 125.944,58.1222 h 11.042 V 38.6389 h -11.042 z"
         id="path218" />
    </clipPath>
  </defs>
  <sodipodi:namedview
     id="namedview4"
     pagecolor="#ffffff"
     bordercolor="#000000"
     borderopacity="0.25"
     inkscape:showpageshadow="2"
     inkscape:pageopacity="0.0"
     inkscape:pagecheckerboard="0"
     inkscape:deskcolor="#d1d1d1" />
  <g
     id="g8"
     inkscape:groupmode="layer"
     inkscape:label="logo c1"
     transform="matrix(1.3333333,0,0,-1.3333333,0,188.976)">
    <g
       id="g10">
      <g
         id="g12"
         clip-path="url(#clipPath16)">
        <g
           id="g18"
           transform="translate(70.2639,104.8836)">
          <path
             d="m 0,0 c -8.63,0 -15.636,-7.006 -15.636,-15.636 0,-8.63 7.006,-15.636 15.636,-15.636 8.629,0 15.636,7.006 15.636,15.636 C 15.636,-7.006 8.629,0 0,0"
             style="fill:#000000;fill-opacity:1;fill-rule:evenodd;stroke:none"
             id="path20" />
        </g>
      </g>
    </g>
    <g
       id="g22">
      <g
         id="g24">
        <g
           id="g30">
          <g
             id="g32">
            <path
               d="m 63.748,92.692 c 0.674,-4.111 8.502,-4.984 8.502,-4.984 v 0 c 1.506,-0.149 2.83,-0.776 2.83,-0.776 v 0 c 5.899,-3.596 -0.366,-6.678 -0.366,-6.678 v 0 c 7.476,2.435 3.937,6.809 3.937,6.809 v 0 c -1.624,2.13 -5.277,2.482 -5.277,2.482 v 0 c -4.387,0.469 -6.14,2.207 -6.14,2.207 v 0 c -4.012,4.693 2.517,6.488 2.517,6.488 v 0 c -7.33,-1.036 -6.003,-5.548 -6.003,-5.548"
               style="fill:url(#linearGradient38);stroke:none"
               id="path40" />
          </g>
        </g>
      </g>
    </g>
    <g
       id="g42">
      <g
         id="g44"
         clip-path="url(#clipPath48)">
        <g
           id="g50"
           transform="translate(63.4157,91.2659)">
          <path
             d="m 0,0 c 0,0 -2.845,-3.115 0.86,-4.672 0,0 1.975,-0.971 5.45,-0.268 0,0 2.485,0.282 4.505,-0.629 0,0 4.078,-2.259 -0.668,-5.435 0,0 3.205,3.08 -0.933,4.6 0,0 -1.509,0.466 -3.991,0.109 0,0 -4.872,-1.215 -7.274,1.659 0,0 -1.53,2.742 2.051,4.636"
             style="fill:#ffffff;fill-opacity:1;fill-rule:evenodd;stroke:none"
             id="path52" />
        </g>
        <g
           id="g54">
          <g
             id="g56" />
          <g
             id="g68">
            <g
               clip-path="url(#clipPath60)"
               opacity="0.889999"
               id="g66">
              <g
                 transform="translate(5.2447,55.8521)"
                 id="g64">
                <path
                   d="M 0,0 C 0.528,0.96 1.244,1.664 2.151,2.11 3.056,2.556 4.017,2.725 5.031,2.617 6.262,2.468 7.294,1.967 8.125,1.115 8.957,0.263 9.461,-0.866 9.637,-2.273 9.664,-2.638 9.461,-2.828 9.028,-2.841 8.825,-2.868 8.64,-2.858 8.47,-2.81 8.301,-2.763 8.203,-2.645 8.176,-2.455 7.946,-1.008 7.499,-0.051 6.837,0.415 6.174,0.883 5.592,1.096 5.092,1.055 4.497,1.055 3.956,0.889 3.469,0.557 2.982,0.226 2.63,-0.264 2.414,-0.913 2.13,-1.942 2.272,-2.922 2.84,-3.855 c 0.568,-0.933 1.292,-1.874 2.171,-2.82 0.731,-0.785 1.427,-1.651 2.09,-2.598 0.663,-0.947 1.116,-1.927 1.359,-2.941 0.203,-1.002 0.112,-1.904 -0.274,-2.709 -0.385,-0.805 -0.937,-1.434 -1.653,-1.887 -0.717,-0.453 -1.468,-0.672 -2.252,-0.659 -1.123,0.054 -2.016,0.534 -2.679,1.441 -0.175,0.324 -0.074,0.594 0.305,0.811 0.352,0.284 0.656,0.291 0.913,0.02 0.378,-0.514 0.872,-0.784 1.481,-0.811 0.649,0 1.18,0.274 1.593,0.821 0.412,0.548 0.456,1.275 0.132,2.181 -0.366,0.812 -0.9,1.589 -1.603,2.334 -0.704,0.744 -1.286,1.393 -1.745,1.947 -0.663,0.866 -1.306,1.748 -1.928,2.648 -0.622,0.9 -1.041,1.853 -1.258,2.861 C -0.724,-2.208 -0.555,-1.137 0,0"
                   style="fill:#ed1d24;fill-opacity:1;fill-rule:nonzero;stroke:none"
                   id="path62" />
              </g>
            </g>
          </g>
        </g>
        <g
           id="g70">
          <g
             id="g72" />
          <g
             id="g84">
            <g
               clip-path="url(#clipPath76)"
               opacity="0.889999"
               id="g82">
              <g
                 transform="translate(34.2574,61.4717)"
                 id="g80">
                <path
                   d="M 0,0 C 0.419,-0.013 0.768,-0.105 1.045,-0.274 1.323,-0.443 1.454,-0.731 1.441,-1.136 1.346,-2.218 1.238,-5.613 1.116,-11.321 c -0.054,-1.907 -0.081,-3.845 -0.081,-5.813 0,-1.968 0.244,-3.872 0.73,-5.711 0.257,-0.771 0.034,-1.339 -0.669,-1.705 -0.379,-0.216 -0.758,-0.328 -1.136,-0.334 -0.379,-0.007 -0.663,0.172 -0.852,0.537 -0.555,1.326 -0.886,3.189 -0.994,5.59 -0.109,2.401 -0.123,4.886 -0.041,7.456 0.054,2.097 0.101,4.004 0.142,5.722 -0.379,-1.042 -0.805,-2.178 -1.279,-3.409 -1.501,-3.814 -2.387,-6.019 -2.657,-6.614 -0.244,-0.636 -0.491,-1.099 -0.741,-1.39 -0.251,-0.291 -0.7,-0.464 -1.349,-0.517 -0.568,-0.028 -0.964,0.057 -1.187,0.253 -0.224,0.197 -0.389,0.429 -0.497,0.7 -0.487,1.001 -0.879,3.003 -1.177,6.006 -0.162,1.623 -0.338,3.253 -0.528,4.889 -0.757,-1.312 -1.358,-2.884 -1.805,-4.716 -0.447,-1.834 -0.718,-3.062 -0.812,-3.683 -0.095,-0.5 -0.237,-1.37 -0.426,-2.607 -0.189,-1.238 -0.264,-2.418 -0.223,-3.541 0.014,-0.338 -0.085,-0.581 -0.294,-0.73 -0.21,-0.149 -0.484,-0.284 -0.822,-0.406 -0.392,-0.176 -0.744,-0.267 -1.055,-0.274 -0.311,-0.007 -0.555,0.179 -0.73,0.558 -0.46,1.285 -0.765,3.3 -0.913,6.046 -0.203,4.382 -0.278,7.48 -0.223,9.293 0.013,0.405 0.172,0.666 0.477,0.781 0.304,0.115 0.672,0.158 1.105,0.132 0.42,0.013 0.768,-0.038 1.045,-0.153 0.277,-0.115 0.416,-0.375 0.416,-0.781 -0.014,-3.26 0.041,-6.026 0.162,-8.298 0.866,3.747 1.711,6.587 2.536,8.522 0.663,1.731 1.414,2.569 2.253,2.515 0.364,-0.014 0.669,-0.135 0.913,-0.364 0.243,-0.231 0.439,-0.491 0.588,-0.782 0.149,-0.291 0.257,-0.538 0.325,-0.741 0.595,-1.771 1.183,-4.822 1.765,-9.15 1.028,1.718 2.373,4.917 4.037,9.597 0.446,1.339 0.893,2.623 1.34,3.854 0.148,0.339 0.357,0.531 0.628,0.579 C -0.642,0.037 -0.338,0.04 0,0"
                   style="fill:#ed1d24;fill-opacity:1;fill-rule:nonzero;stroke:none"
                   id="path78" />
              </g>
            </g>
          </g>
        </g>
        <g
           id="g86">
          <g
             id="g88" />
          <g
             id="g100">
            <g
               clip-path="url(#clipPath92)"
               opacity="0.889999"
               id="g98">
              <g
                 transform="translate(44.9906,53.1129)"
                 id="g96">
                <path
                   d="M 0,0 C 0.095,0.771 0.021,1.464 -0.223,2.08 -0.466,2.695 -0.839,3.036 -1.339,3.104 -1.569,3.117 -1.82,3.043 -2.09,2.881 -2.36,2.719 -2.641,2.441 -2.932,2.049 -3.223,1.657 -3.53,1.136 -3.855,0.487 -4.342,-0.595 -4.693,-1.661 -4.91,-2.709 c -0.217,-1.048 -0.352,-1.903 -0.406,-2.566 0.65,0.27 1.286,0.574 1.907,0.913 0.879,0.487 1.63,1.082 2.252,1.785 C -0.534,-1.874 -0.149,-1.015 0,0 M -6.756,2.049 C -6.04,3.212 -5.245,4.02 -4.372,4.474 -3.5,4.927 -2.651,5.092 -1.826,4.971 -0.758,4.808 0.084,4.281 0.7,3.388 1.315,2.496 1.535,1.299 1.36,-0.203 1.319,-0.608 1.194,-1.11 0.984,-1.705 0.774,-2.3 0.372,-2.939 -0.223,-3.622 c -0.595,-0.682 -1.481,-1.363 -2.658,-2.039 -0.704,-0.392 -1.542,-0.771 -2.516,-1.136 -0.014,-0.338 0.02,-0.991 0.102,-1.958 0.081,-0.967 0.294,-1.887 0.639,-2.759 0.345,-0.873 0.91,-1.323 1.694,-1.349 0.608,0.054 1.166,0.362 1.674,0.923 0.507,0.561 0.933,1.231 1.278,2.008 0.345,0.778 0.578,1.498 0.7,2.161 0.122,0.379 0.419,0.514 0.893,0.406 0.432,-0.054 0.629,-0.277 0.588,-0.669 -0.243,-1.448 -0.822,-2.814 -1.735,-4.099 -0.912,-1.285 -2.12,-2.056 -3.621,-2.313 -1.529,-0.162 -2.831,0.375 -3.906,1.613 -1.075,1.238 -1.667,3.223 -1.776,5.955 0,3.421 0.704,6.398 2.111,8.927"
                   style="fill:#ed1d24;fill-opacity:1;fill-rule:nonzero;stroke:none"
                   id="path94" />
              </g>
            </g>
          </g>
        </g>
        <g
           id="g102">
          <g
             id="g104" />
          <g
             id="g116">
            <g
               clip-path="url(#clipPath108)"
               opacity="0.889999"
               id="g114">
              <g
                 transform="translate(49.7788,68.7763)"
                 id="g112">
                <path
                   d="M 0,0 C 0.473,-0.014 0.859,-0.092 1.157,-0.234 1.454,-0.376 1.596,-0.67 1.583,-1.116 1.366,-5.133 1.224,-9.273 1.157,-13.533 c -0.068,-2.353 -0.079,-5.268 -0.031,-8.745 0.047,-3.476 0.254,-5.965 0.619,-7.466 0.081,-0.311 0.023,-0.531 -0.172,-0.66 -0.197,-0.128 -0.457,-0.233 -0.781,-0.314 -0.217,-0.067 -0.413,-0.122 -0.589,-0.162 -0.176,-0.041 -0.332,-0.031 -0.466,0.03 -0.136,0.061 -0.231,0.193 -0.284,0.396 -0.555,2.042 -0.918,4.737 -1.086,8.085 -0.169,3.348 -0.253,6.299 -0.253,8.856 -0.069,4.18 -0.014,8.359 0.161,12.539 0.028,0.446 0.203,0.726 0.528,0.842 C -0.873,-0.017 -0.474,0.026 0,0"
                   style="fill:#ed1d24;fill-opacity:1;fill-rule:nonzero;stroke:none"
                   id="path110" />
              </g>
            </g>
          </g>
        </g>
        <g
           id="g118">
          <g
             id="g120" />
          <g
             id="g132">
            <g
               clip-path="url(#clipPath124)"
               opacity="0.889999"
               id="g130">
              <g
                 transform="translate(54.08,68.7763)"
                 id="g128">
                <path
                   d="M 0,0 C 0.473,-0.014 0.859,-0.092 1.157,-0.234 1.454,-0.376 1.596,-0.67 1.583,-1.116 1.366,-5.133 1.224,-9.273 1.157,-13.533 c -0.068,-2.353 -0.079,-5.268 -0.031,-8.745 0.047,-3.476 0.254,-5.965 0.619,-7.466 0.081,-0.311 0.023,-0.531 -0.172,-0.66 -0.197,-0.128 -0.457,-0.233 -0.781,-0.314 -0.217,-0.067 -0.413,-0.122 -0.589,-0.162 -0.176,-0.041 -0.332,-0.031 -0.466,0.03 -0.136,0.061 -0.231,0.193 -0.284,0.396 -0.555,2.042 -0.918,4.737 -1.086,8.085 -0.169,3.348 -0.253,6.299 -0.253,8.856 -0.069,4.18 -0.014,8.359 0.161,12.539 0.028,0.446 0.203,0.726 0.528,0.842 C -0.873,-0.017 -0.474,0.026 0,0"
                   style="fill:#ed1d24;fill-opacity:1;fill-rule:nonzero;stroke:none"
                   id="path126" />
              </g>
            </g>
          </g>
        </g>
        <g
           id="g134">
          <g
             id="g136" />
          <g
             id="g148">
            <g
               clip-path="url(#clipPath140)"
               opacity="0.889999"
               id="g146">
              <g
                 transform="translate(72.0567,56.6637)"
                 id="g144">
                <path
                   d="M 0,0 C 0.541,0.852 0.883,1.748 1.025,2.688 1.167,3.628 1.156,4.517 0.994,5.356 0.831,6.181 0.554,6.864 0.162,7.405 -0.23,7.946 -0.69,8.237 -1.218,8.278 -2.219,8.291 -3.064,7.533 -3.754,6.005 -4.159,4.963 -4.359,3.898 -4.352,2.809 -4.346,1.72 -4.238,0.71 -4.028,-0.224 -3.818,-1.157 -3.483,-2.205 -3.023,-3.368 -1.455,-1.772 -0.447,-0.65 0,0 m -2.536,-7.102 c -0.366,-0.311 -0.792,-0.7 -1.279,-1.166 -0.486,-0.466 -0.926,-0.984 -1.318,-1.552 -0.312,-0.447 -0.515,-0.907 -0.609,-1.38 -0.095,-0.473 -0.014,-0.933 0.244,-1.379 0.229,-0.379 0.557,-0.582 0.983,-0.609 0.427,-0.028 0.883,0.04 1.37,0.203 0.798,0.284 1.515,0.639 2.15,1.065 0.636,0.426 1.049,0.727 1.239,0.903 -0.677,0.797 -1.502,1.934 -2.476,3.409 -0.108,0.161 -0.21,0.331 -0.304,0.506 M -5.194,6.431 c 0.459,1.244 1.068,2.185 1.826,2.82 0.757,0.636 1.61,0.988 2.556,1.055 1.245,0.068 2.293,-0.24 3.145,-0.923 C 3.185,8.701 3.8,7.77 4.179,6.594 4.585,5.349 4.673,3.987 4.443,2.506 4.213,1.025 3.604,-0.413 2.617,-1.806 1.291,-3.538 -0.088,-5.005 -1.522,-6.209 l 0.426,-0.67 c 0.906,-1.366 1.684,-2.447 2.334,-3.246 1.46,1.434 2.678,3.051 3.651,4.85 0.19,0.284 0.447,0.331 0.771,0.142 C 6.012,-5.296 6.134,-5.54 6.026,-5.864 5.971,-5.959 5.786,-6.273 5.468,-6.808 5.15,-7.342 4.703,-7.991 4.129,-8.755 3.553,-9.52 2.861,-10.307 2.049,-11.119 c 0.622,-0.758 0.973,-1.21 1.055,-1.359 0.162,-0.325 0.061,-0.588 -0.305,-0.791 -0.338,-0.244 -0.615,-0.231 -0.831,0.04 -0.298,0.42 -0.609,0.818 -0.934,1.197 -0.324,-0.284 -0.814,-0.645 -1.471,-1.085 -0.656,-0.44 -1.416,-0.828 -2.282,-1.167 -0.88,-0.352 -1.793,-0.507 -2.739,-0.466 -0.947,0.04 -1.732,0.507 -2.353,1.4 -0.542,0.946 -0.718,1.897 -0.528,2.85 0.189,0.954 0.561,1.85 1.116,2.689 0.906,1.284 1.954,2.441 3.145,3.469 -0.65,1.285 -1.164,2.884 -1.542,4.799 -0.379,1.913 -0.237,3.905 0.426,5.974"
                   style="fill:#ed1d24;fill-opacity:1;fill-rule:nonzero;stroke:none"
                   id="path142" />
              </g>
            </g>
          </g>
        </g>
        <g
           id="g150">
          <g
             id="g152" />
          <g
             id="g164">
            <g
               clip-path="url(#clipPath156)"
               opacity="0.889999"
               id="g162">
              <g
                 transform="translate(86.5032,55.8521)"
                 id="g160">
                <path
                   d="M 0,0 C 0.527,0.96 1.243,1.664 2.15,2.11 3.056,2.556 4.017,2.725 5.031,2.617 6.261,2.468 7.293,1.967 8.125,1.115 8.957,0.263 9.461,-0.866 9.636,-2.273 9.664,-2.638 9.461,-2.828 9.028,-2.841 8.825,-2.868 8.639,-2.858 8.47,-2.81 8.3,-2.763 8.203,-2.645 8.176,-2.455 7.945,-1.008 7.499,-0.051 6.837,0.415 6.174,0.883 5.592,1.096 5.092,1.055 4.496,1.055 3.956,0.889 3.469,0.557 2.982,0.226 2.63,-0.264 2.414,-0.913 2.13,-1.942 2.272,-2.922 2.84,-3.855 3.408,-4.788 4.131,-5.729 5.011,-6.675 5.741,-7.46 6.438,-8.326 7.1,-9.273 7.764,-10.22 8.216,-11.2 8.46,-12.214 8.663,-13.216 8.571,-14.118 8.186,-14.923 7.8,-15.728 7.248,-16.357 6.532,-16.81 5.815,-17.263 5.064,-17.482 4.28,-17.469 c -1.123,0.054 -2.015,0.534 -2.678,1.441 -0.175,0.324 -0.075,0.594 0.305,0.811 0.352,0.284 0.656,0.291 0.913,0.02 0.378,-0.514 0.872,-0.784 1.481,-0.811 0.649,0 1.179,0.274 1.592,0.821 0.413,0.548 0.457,1.275 0.132,2.181 -0.365,0.812 -0.9,1.589 -1.603,2.334 -0.704,0.744 -1.285,1.393 -1.744,1.947 -0.664,0.866 -1.306,1.748 -1.928,2.648 -0.623,0.9 -1.042,1.853 -1.259,2.861 C -0.725,-2.208 -0.555,-1.137 0,0"
                   style="fill:#ed1d24;fill-opacity:1;fill-rule:nonzero;stroke:none"
                   id="path158" />
              </g>
            </g>
          </g>
        </g>
        <g
           id="g166">
          <g
             id="g168" />
          <g
             id="g180">
            <g
               clip-path="url(#clipPath172)"
               opacity="0.889999"
               id="g178">
              <g
                 transform="translate(115.5151,61.4717)"
                 id="g176">
                <path
                   d="m 0,0 c 0.419,-0.013 0.768,-0.105 1.045,-0.274 0.278,-0.169 0.41,-0.457 0.396,-0.862 -0.095,-1.082 -0.203,-4.477 -0.325,-10.185 -0.054,-1.907 -0.081,-3.845 -0.081,-5.813 0,-1.968 0.245,-3.872 0.73,-5.711 0.258,-0.771 0.035,-1.339 -0.669,-1.705 -0.378,-0.216 -0.758,-0.328 -1.136,-0.334 -0.379,-0.007 -0.663,0.172 -0.852,0.537 -0.554,1.326 -0.886,3.189 -0.994,5.59 -0.109,2.401 -0.122,4.886 -0.041,7.456 0.055,2.097 0.101,4.004 0.142,5.722 -0.378,-1.042 -0.804,-2.178 -1.278,-3.409 -1.501,-3.814 -2.387,-6.019 -2.658,-6.614 -0.243,-0.636 -0.491,-1.099 -0.74,-1.39 -0.251,-0.291 -0.7,-0.464 -1.349,-0.517 -0.569,-0.028 -0.964,0.057 -1.187,0.253 -0.225,0.197 -0.39,0.429 -0.497,0.7 -0.487,1.001 -0.88,3.003 -1.177,6.006 -0.162,1.623 -0.339,3.253 -0.529,4.889 -0.756,-1.312 -1.358,-2.884 -1.804,-4.716 -0.448,-1.834 -0.719,-3.062 -0.813,-3.683 -0.094,-0.5 -0.236,-1.37 -0.426,-2.607 -0.189,-1.238 -0.264,-2.418 -0.223,-3.541 0.014,-0.338 -0.084,-0.581 -0.293,-0.73 -0.21,-0.149 -0.484,-0.284 -0.823,-0.406 -0.391,-0.176 -0.743,-0.267 -1.055,-0.274 -0.31,-0.007 -0.555,0.179 -0.73,0.558 -0.46,1.285 -0.764,3.3 -0.913,6.046 -0.203,4.382 -0.277,7.48 -0.223,9.293 0.014,0.405 0.172,0.666 0.478,0.781 0.303,0.115 0.672,0.158 1.104,0.132 0.42,0.013 0.768,-0.038 1.045,-0.153 0.278,-0.115 0.417,-0.375 0.417,-0.781 -0.014,-3.26 0.041,-6.026 0.161,-8.298 0.866,3.747 1.711,6.587 2.536,8.522 0.664,1.731 1.414,2.569 2.253,2.515 0.364,-0.014 0.67,-0.135 0.913,-0.364 0.244,-0.231 0.439,-0.491 0.589,-0.782 0.149,-0.291 0.256,-0.538 0.324,-0.741 0.596,-1.771 1.184,-4.822 1.765,-9.15 1.028,1.718 2.374,4.917 4.037,9.597 0.447,1.339 0.893,2.623 1.341,3.854 0.148,0.339 0.356,0.531 0.627,0.579 C -0.642,0.037 -0.337,0.04 0,0"
                   style="fill:#ed1d24;fill-opacity:1;fill-rule:nonzero;stroke:none"
                   id="path174" />
              </g>
            </g>
          </g>
        </g>
        <g
           id="g182">
          <g
             id="g184" />
          <g
             id="g196">
            <g
               clip-path="url(#clipPath188)"
               opacity="0.889999"
               id="g194">
              <g
                 transform="translate(119.4927,60.0113)"
                 id="g192">
                <path
                   d="m 0,0 c 0.446,0 0.826,-0.129 1.136,-0.386 0.31,-0.257 0.467,-0.575 0.467,-0.953 0,-0.366 -0.157,-0.677 -0.467,-0.934 C 0.826,-2.53 0.446,-2.658 0,-2.658 c -0.446,0 -0.826,0.128 -1.136,0.385 -0.312,0.257 -0.467,0.568 -0.467,0.934 0,0.378 0.155,0.696 0.467,0.953 C -0.826,-0.129 -0.446,0 0,0 m -0.142,-4.241 c 0.433,-0.027 0.791,-0.129 1.075,-0.304 0.284,-0.176 0.419,-0.467 0.406,-0.872 -0.271,-3.152 -0.393,-6.31 -0.365,-9.475 0.04,-1.61 0.098,-2.83 0.172,-3.663 0.074,-0.832 0.125,-1.288 0.152,-1.369 0.067,-0.5 -0.278,-0.805 -1.034,-0.913 -0.325,-0.094 -0.616,-0.108 -0.873,-0.041 -0.256,0.068 -0.413,0.264 -0.466,0.589 -0.325,2.11 -0.515,3.875 -0.568,5.295 -0.231,4.112 -0.251,7.372 -0.061,9.78 0.04,0.405 0.206,0.679 0.497,0.821 0.291,0.142 0.646,0.193 1.065,0.152"
                   style="fill:#ed1d24;fill-opacity:1;fill-rule:nonzero;stroke:none"
                   id="path190" />
              </g>
            </g>
          </g>
        </g>
        <g
           id="g198">
          <g
             id="g200" />
          <g
             id="g212">
            <g
               clip-path="url(#clipPath204)"
               opacity="0.889999"
               id="g210">
              <g
                 transform="translate(123.8137,68.7763)"
                 id="g208">
                <path
                   d="M 0,0 C 0.474,-0.014 0.859,-0.092 1.157,-0.234 1.455,-0.376 1.597,-0.67 1.583,-1.116 1.367,-5.133 1.225,-9.273 1.157,-13.533 1.09,-15.886 1.078,-18.801 1.126,-22.278 c 0.048,-3.476 0.254,-5.965 0.619,-7.466 0.081,-0.311 0.023,-0.531 -0.171,-0.66 -0.197,-0.128 -0.458,-0.233 -0.781,-0.314 -0.218,-0.067 -0.413,-0.122 -0.59,-0.162 -0.175,-0.041 -0.332,-0.031 -0.466,0.03 -0.135,0.061 -0.231,0.193 -0.284,0.396 -0.554,2.042 -0.918,4.737 -1.086,8.085 -0.168,3.348 -0.253,6.299 -0.253,8.856 -0.069,4.18 -0.014,8.359 0.162,12.539 0.027,0.446 0.203,0.726 0.527,0.842 C -0.872,-0.017 -0.474,0.026 0,0"
                   style="fill:#ed1d24;fill-opacity:1;fill-rule:nonzero;stroke:none"
                   id="path206" />
              </g>
            </g>
          </g>
        </g>
        <g
           id="g214">
          <g
             id="g216" />
          <g
             id="g228">
            <g
               clip-path="url(#clipPath220)"
               opacity="0.889999"
               id="g226">
              <g
                 transform="translate(134.8118,53.1129)"
                 id="g224">
                <path
                   d="M 0,0 C 0.092,0.771 0.02,1.464 -0.225,2.08 -0.469,2.695 -0.839,3.036 -1.341,3.104 -1.569,3.117 -1.82,3.043 -2.09,2.881 -2.361,2.719 -2.642,2.441 -2.932,2.049 -3.223,1.657 -3.53,1.136 -3.857,0.487 -4.342,-0.595 -4.696,-1.661 -4.91,-2.709 c -0.218,-1.048 -0.354,-1.903 -0.407,-2.566 0.651,0.27 1.285,0.574 1.909,0.913 0.878,0.487 1.628,1.082 2.252,1.785 C -0.535,-1.874 -0.149,-1.015 0,0 m -6.756,2.049 c 0.716,1.163 1.512,1.971 2.384,2.425 0.872,0.453 1.72,0.618 2.546,0.497 C -0.76,4.808 0.083,4.281 0.7,3.388 1.314,2.496 1.536,1.299 1.357,-0.203 1.318,-0.608 1.192,-1.11 0.984,-1.705 0.773,-2.3 0.37,-2.939 -0.225,-3.622 c -0.594,-0.682 -1.479,-1.363 -2.658,-2.039 -0.703,-0.392 -1.542,-0.771 -2.516,-1.136 -0.013,-0.338 0.023,-0.991 0.102,-1.958 0.083,-0.967 0.294,-1.887 0.641,-2.759 0.343,-0.873 0.908,-1.323 1.694,-1.349 0.607,0.054 1.166,0.362 1.674,0.923 0.505,0.561 0.931,1.231 1.278,2.008 0.344,0.778 0.578,1.498 0.7,2.161 0.122,0.379 0.42,0.514 0.892,0.406 0.432,-0.054 0.627,-0.277 0.588,-0.669 -0.245,-1.448 -0.823,-2.814 -1.734,-4.099 -0.915,-1.285 -2.12,-2.056 -3.623,-2.313 -1.529,-0.162 -2.83,0.375 -3.906,1.613 -1.073,1.238 -1.666,3.223 -1.775,5.955 0,3.421 0.705,6.398 2.112,8.927"
                   style="fill:#ed1d24;fill-opacity:1;fill-rule:nonzero;stroke:none"
                   id="path222" />
              </g>
            </g>
          </g>
        </g>
      </g>
    </g>
  </g>
</svg>
